<svg id="Livello_1" data-name="Livello 1" xmlns="http://www.w3.org/2000/svg" viewBox="0 0 1024 1024"><defs><style>.cls-1,.cls-3{fill:none;}.cls-1{stroke:#000;stroke-miterlimit:10;stroke-width:32.24px;}.cls-2{fill:red;}</style></defs><title>logo-decomposto</title><circle class="cls-1" cx="512" cy="512" r="493.63"/><path d="M625,834A106.5,106.5,0,0,1,777.72,688L825.1,552.53c2.7-8.23,11.61-12.28,19.84-9.58,7.42,3.3,12.38,10.9,9.58,19.84l-55.67,159c-5.67,13.54-20.08,13.5-26.94,4.17a75.46,75.46,0,0,0-105.62-16.16c-33.69,24.75-41.31,72.23-16.56,105.92L682.22,860l246.4-181a15.61,15.61,0,1,1,18.49,25.17l-259,190.27c-6.9,5.07-16.35,3.26-21.42-3.64Z"/><path class="cls-2" d="M669.62,605.87l-136.37,291A15.61,15.61,0,1,1,505,883.62l136.37-291c3.63-7.75,12.8-10.69,20.55-7.06S673.25,598.12,669.62,605.87Z"/><path d="M299.58,702.61c7.26-4.55,16.71-2.75,21.26,4.51L457.29,924.77a15.61,15.61,0,1,1-26.46,16.59l-59.67-95.17L267,911.48A15.61,15.61,0,0,1,250.44,885l104.13-65.29-51.91-82.79L175.49,816.67A15.69,15.69,0,0,1,154,811.74c-4.55-7.26-2.05-16.55,5.2-21.1Z"/><path d="M435.67,729.55l90.18,224.33,140.21-56.37a15.61,15.61,0,1,1,11.65,29L523,988.68A15.69,15.69,0,0,1,502.7,980l-96-238.82c-3.19-7.95.91-16.65,8.85-19.85S432.48,721.61,435.67,729.55Z"/><path class="cls-2" d="M811.23,842.19a15.61,15.61,0,1,1,16.71,26.39L687.07,957.76a15.61,15.61,0,0,1-16.71-26.39Z"/><path class="cls-2" d="M470.33,957.59a15.61,15.61,0,1,1-8.59,30L301.45,941.74a15.61,15.61,0,1,1,8.59-30Z"/><rect class="cls-3" x="499.68" y="605.68" width="352.09" height="197.23" transform="translate(-148.43 181.42) rotate(-13.79)"/><rect class="cls-3" x="499.68" y="605.68" width="352.09" height="197.23" transform="translate(-162.17 203.73) rotate(-15.33)"/></svg>